<svg id="Layer_1" data-name="Layer 1" xmlns="http://www.w3.org/2000/svg" xmlns:xlink="http://www.w3.org/1999/xlink" viewBox="0 0 502 159"><defs><style>.cls-1{fill:none;}.cls-2{clip-path:url(#clip-path);}.cls-3{fill:#fff;}.cls-4{fill:#c26437;fill-rule:evenodd;}</style><clipPath id="clip-path"><rect class="cls-1" x="1" y="1" width="499.87" height="156.87"/></clipPath></defs><title>tw_logo_light</title><g class="cls-2"><path class="cls-3" d="M157.74,156.56h14.67l-.08-49.92a20,20,0,0,1-7,1.25,24.51,24.51,0,0,1-7.59-1.33v50Z"/><path class="cls-4" d="M157.23,5.26c.55-1.4,2.29-1.71,3.24-2.65-1.74-.2-3.9,1.28-3.24,2.65M163,1.9c-.09,1.57-.65,1-2.36,2.31a16.34,16.34,0,0,1-3.22,2.38c-.78,1-.31,3.47-2.65,2.68,1.48-1.93-.07-3.06.55-5.82A6,6,0,0,1,163,1.9"/><path class="cls-4" d="M166.87,2.83c1.66-.17,1.59,1.29,2.73,1.62.77-.8-2.07-3.2-2.73-1.62M171,8c-2-1.84-3.56-4.18-7.16-4.55-.53-3.62,7.07-3,7.84,0-1.51,1.6.65,3.4-.68,4.55"/></g><g class="cls-2"><path class="cls-4" d="M180.84,6.4c.1-.88,1.43-.58,1.71-1.3-1.22-.37-3.49-1.42-4.77-.65,1.61.09,1.92,1.42,3.07,1.95M186,5.75c-.5.93-2.28.64-3.41,1-1,.55,0,3-1.71,2.92-1.46-1.33-1.65-3.69-4.09-4.22-1.73-.38-3.15.64-4.77.32.66-3.15,5.63-3.7,9.2-2.92,1.92.42,4.49,1.51,4.77,2.92"/><path class="cls-4" d="M151.87,9.64c-1-1.39,1.08-2.08,1-3.57-.1-.66-.68-.86-1-1.3-2-.37-2.48.67-3.75,1,1.46-6.55,10.5,1.09,3.75,3.9"/></g><path class="cls-4" d="M146.07,3.47c1,3.4-1.92,5.9-2.73,8.12-.94.9-5,2.37-6.14.32.9-1.31,4.2-.33,5.11-1.62-.51-.89-2.3.72-3.07-.32.08-1.33,1.42-1.46,2.73-1.62-.69-2.69-2.81,1.26-3.75.32-.36-2.29,1.6-2.38,3.07-2.92a3.1,3.1,0,0,1,2.39,1.63c1.27-.85.68-3.47,2.39-3.9"/><path class="cls-4" d="M160.39,11.27c.74-.27-.13-2.07.68-2.27.21,0,.4,0,.34-.33-1.51-.27-3.19,2.33-1,2.6m6.07-5.67c.73,1.3-.23.9-.61,2.1-.5,1.55.21,3.83-.34,5.2-.77,1.9-3.33,3.65-5.45,2.27.44-1.64,2.84-1.41,3.75-2.6a17.44,17.44,0,0,0,.34-4.87,5.71,5.71,0,0,0-2.39.65c-.25.28,1,.73.68,1.95-.42,2.09-2.09,3-3.75,3.9-.56.88-.17,2.65-1.36,2.92-1.74-.92.2-3.61,1-4.22-2.85-5.5,2.79-5.77,4.28-6.39,1.53-.14,3.37-1,3.83-.9"/><path class="cls-4" d="M150.5,6.72c0,1.09.68,1.72-.34,2.27-1.3-.17-1.24-1.63-1.7-2.6a2.07,2.07,0,0,1,2,.33"/><path class="cls-4" d="M190.86,13.07a3.18,3.18,0,0,1-2.52-5c-5.5-1.89-4.62,6.59,2.52,5m.21-5c.41,1.58-1.36,1.09-1.37,2.27.56,2.66,3.41.4,5.45.65-1.67,5.48-13.87,4.65-11.59-2.27.92-2.79,5.07-2.72,7.5-.65"/><path class="cls-4" d="M166.27,15c.47-1.23.07-3.65,1.38-3.71,1.76.69-.2,2.13.81,3.12l1.68.31c.53-.64-1.74-3.34-.18-4.66,2.57,1.16.12,3.58,3,4.51,3.09,1,7.08-3.88,2.68-5.12-1.63-.49-2.34,1.89-3.59.66.43-3.73,5.52-2.28,7-.37,1.62,6.56-7.19,8.61-12.75,5.25"/><path class="cls-4" d="M146.75,8.35q1.6-.23,1.36,1.3c-.61,0-.72.4-1.36.33a1.17,1.17,0,0,1,0-1.62"/><path class="cls-4" d="M147.09,13.22c.47,1.06,1.57,1.54,2.39,2.27-.08-1.27.73-1.68,1-2.6a8.92,8.92,0,0,0-3.41.33m6.82-2.6c.15,2-1.56,2.19-2.39,3.25-.54,1.65-.91,3.46-2,4.55-2-.69-1.63-3.64-4.09-3.9-1.78.36-2.63,1.42-3.75,2.27s-2.27,2.37-3.41,2.6c-7,1.41-6-8,0-5.52-.92,1.3-3.29.33-3.41,2.27-.06.92.26,1.41,1.7,1.95,2.26.52,5.67-5.33,9.89-6.5,1.75-.48,5,.12,6.14-1.3.71-.14.9.22,1.36.32"/><path class="cls-4" d="M154.93,29.13c-.14,1.14,1.15-.4,1.36-.65,1.79-2.09,1.58-5.68,2.39-8.44a7,7,0,0,0-2.73,1.3c.4,3,.41,5.79-1,7.79m-.68-4.22c.52-2.08-.44-5.38-1-7.47-2.39,1.91-4.28,8.42,1,7.47m-.34-12h1.36a36,36,0,0,0,0,6.82c3.05-.56,3.29-1.81,6.23-2.48.28,2.19-1.4,2.07-1.8,4.75-.13.86.21,2,0,2.92-.9,4.16-3.85,7.63-8.18,7.14.37-2.25,2.47-2.84,2.73-5.19a37.69,37.69,0,0,0-3.75-1c-4.18-5.11,2.63-8.54,3.41-13"/><path class="cls-4" d="M198.91,14.84c-1.63-.9-.83,1.07,0,0m1.7.65c-1.38,1.61-5,1.84-4.43-1.62a2.51,2.51,0,0,1,4.43,1.62"/><path class="cls-4" d="M181.1,17.23c-.69.6-3.12,1.37-4.37,1.87,1.25.94,1.37,1.5,1.25,2.62.91,0,3.17.06,3.62.51a5.88,5.88,0,0,1-.5-5m1.11-3c.45.11.54.57,1,.65-.6,1.82-1.21,4.19-.68,6.17s2.32,2.17,2.72,3.57c-2.15,1.5-3.6-1.81-6.48-1.62-1.56-.08-1.41,1.47-3.07,1.3-1-1.14.6-1.84.68-2.92.06-2.33-2.12-1.13-2.18-3.35.94-.8.84,0,2.18-.22,2.81-.35,4-2.23,5.79-3.57"/><path class="cls-4" d="M131.59,14.77a7.21,7.21,0,0,0,1.71,5.52c.91.54,3.16-.19,2.73,1.63-1.72.35-3.15-.66-5.11-.33-1.78.31-2.93,2.65-4.43,1.62.79-1.74,2.42-2.68,4.77-2.92a4.85,4.85,0,0,1-.68-2.6c-2.18,2.35-6.9,5-10.91,3.57.74-1.32,2.69-.63,4.09-1A13.38,13.38,0,0,0,129.55,17c.75-.93.54-1.65,1-2.27Z"/><path class="cls-4" d="M136.87,15.49q1.6-.22,1.36,1.3c-1,.66-2.29-.26-1.36-1.3"/><path class="cls-4" d="M193.45,20V18.09a9,9,0,0,1-3.41-.32A3.18,3.18,0,0,0,193.45,20m-5.11-4.55c2.06-.34,2.22,1.13,3.75,1.3,1.49,0,1.71-1.18,3.41-1,1.07,1.26-.65,2-.34,3.57.67.93.53-1.63,2-1,.79,2.86-2.88,4.19-5.11,5.19-1.88.12-4.26.44-5.8-.65-1.22-.86-2.86-4.51.34-4.55-.86,3.64,3.39,4.2,6.07,3.44-2.12-.87-2.37-.37-3.68-1.82-.69-1.18-1.26-3.41-.68-4.55"/><path class="cls-4" d="M201.63,21c.76-.14,1.34-.94,2-1.22-.65-.14-1.11-1.18-2.2-.9-.44.43-.19,1.7.25,2.12m6.14,4.55c1,.77,1.83-1.19,3.07-.32.06,1.95-2.32,2.34-3.07,2.27-2.48-.24-3.19-4.1-3.41-6.5A26.41,26.41,0,0,1,202,23c-2.18-.25-2.91-3-2.14-4.62,1-1.85,3.86-.88,5.2.4,1.82,1.73.81,5.27,2.73,6.82"/><path class="cls-4" d="M166.87,22.31c.26,1.36,1.57,1.79,3.41,2.27.43-1.1,1.89-1.23,2-2.6-.77-3.59-6.16-3.35-5.45.32m1-4.22c2.34-.65,6.52,1,6.48,3.9,0,2.36-2.93,3.78-4.09,3.9-4.75.49-7.81-6.3-2.39-7.79"/><path class="cls-4" d="M138.91,23.61c1.17.62,3.06.55,4.43,1-.57-1.3,1.07-3.23-.34-3.25-1.27.85-3,1.24-4.09,2.27m5.45-5.52c.55-.09.59.31,1,.33.75.89-.28,2.28-.34,3.57-.08,1.77.46,3.16.34,4.22-1.18.83-3-.7-4.09,0-1.33,1.44-7.08,5.1-6.14,7.79.76,2.15,2.51.6,4.43,1,0,1.86-2.18,2.33-3.75,1.95s-2.51-2.41-2.39-4.22c.22-3.13,5.08-5.36,5.45-7.15-.67-1.13-2.59,0-4.09,0,.9-4.66,7.52-3.87,9.54-7.47"/><path class="cls-4" d="M168.57,21.33c1-.23,1.24.33,2,.33.14,1.22-1.55,1.67-2.38,1,0-.58.42-.69.34-1.3"/><path class="cls-4" d="M121.19,23c1.86-.27,1.58,2.16-.34,1.62a2,2,0,0,1,.34-1.62"/><path class="cls-4" d="M130,26.21c.68.3,1.62,1.06,2.39.33,0-1.11-1-1.21-1.71-1.62-.18.48-.51.82-.68,1.3m3.75,1.3c-1.12,1.71-4.82.49-5.11-1.3-.51-3.12,5.85-3.93,5.11,1.3"/><path class="cls-4" d="M162.43,29.13a5.42,5.42,0,0,1,3.41,2.6c1.46-.24,1.49-1.83,2.38-2.6-1.92-.44-3.2-1.5-5.11-1.95.09.95-.77,1-.68,1.95m-.18-6.28c2.18.84,3.15,4.29,6,4.65,1.43.18,2.57-.73,4.09-.32-.1.52.32.56.34,1,.08,1.37-1.77.91-2.39,1.62-2.73.65-2.31,6-4.43,6.17-1.76-.21-.12-1.77-1-2.92-1.11-3.53-8.06-2.81-6.39,1.95.95.48,1.82.61,2.2.07.49-.18.58-.26.77-.73.45-1.4-1.62-.4-1.37-1.62.18-1.4,1.27-.7,2.39-.65,4,6.39-7.79,6.65-5.36-.13.56-1.59,3.61-3,4.43-4.74.19-1.67-.6-3.36.75-4.33"/><path class="cls-4" d="M207.43,30.43c-4.79-.2-4-5.72-9.89-4.87,2.26,2.27,5.67,6.6,9.89,4.87m-12-2.08c1.62,1.49,3.88,4.39,7.21,5.33.44,1.2-2,1.29-2.39.65-.9.12-.31,1.66-1,2-2.13-.92.39-5.36-3.41-3.9,0,1,.81,2.12,0,2.92-1.31-.45-2.37-4.41,0-4.55-2.32-2.22-3.92,1.32-4.09,3.25-2.33-1.24-.14-4.59,1-5.52-2.46-.48-3.85,1-5.45.32-.09-3,5.35-2.22,7.13-1.58l1,1.12Zm-1-2.79c1.7-.54,2.3-1.81,3.75-1.95,4.72-.45,5.67,5.27,10.57,5.2a7.68,7.68,0,0,1-.49,2.41c-.62.87-.67,1-1.21,1.16-5.44,1.58-7.36-4.64-11.39-5.16"/><path class="cls-4" d="M175.85,28.09c4.12-2,5,6.11,12,7-4.24-1.25-4-13.35-12-7M190,36.27c-6.39.87-9.53-4.12-13-7.14-1.25-.24-1.89.8-2.73,0a5.49,5.49,0,0,1,8.18-3.57c1.83,1,2.48,4.18,4.09,6.49s4,2.41,3.41,4.22"/><path class="cls-4" d="M117.09,28.48h1v-1h-.68c0,.42-.44.45-.34,1m2-2.6c2.65,3-2.35,6-3.75,2.6.67-1.42,1.27-2.9,3.75-2.6"/><path class="cls-4" d="M147.77,30.43c-.83-2.18-5.17-2.31-6.48,0,5-.39,4.54,4.59,1.71,6.17,2.73-.65,5.88-3.28,4.77-6.17m-5.52,8.44c-1.47,1.83,2.53,3.83.07,4.55-6.28-3.59,2.21-8.46,1.09-10.71-.5-2-2.18,0-3.81.32-2.07-5.79,6.86-7.71,9.2-4.22,2.89,4.31-3,8.89-6.54,10.07"/><path class="cls-4" d="M208.11,38.55c1.64.67,4.12.27,3.75-1.95-2,0-4.22-.34-3.75,1.95m1.36-7.79c3.16,0,4.21,2.05,4.43,4.87.4.88,3.29,1.53,3.41,3.25.05.79.23,2.65-2,2.27.73-2.09,0-3-1.36-3.9-.44,2.7-5.25,4.09-7.16,1.63-.46-4.07,2.64-4.09,5.45-3.57.83-1.88-2.61-2.48-2.73-4.55"/><path class="cls-4" d="M174,34.32c.75,1.15,2.36,2.39,4.09,1.62.8-1.22-.22-3.67-2.73-3.57-.57.54-1.38.85-1.36,1.95m.68-2.92c4.4-1.67,7.5,5.41,2.73,6.17-2.48.39-7.78-4.26-2.73-6.17"/><path class="cls-4" d="M114.37,35.3c1-.53,2.39-.76,2.39-2.27-1.48-1.15-3.74.73-2.39,2.27m3.75-3.25c.78,2.75-1.06,4.49-3.75,4.87-4.47-1.53-.3-7.85,3.75-4.87"/><path class="cls-4" d="M169,40.25c1-1,3.78-.28,4.68-1.37-1.72-.42-2.09-2.12-3.41-2.92-.19,1.45-2,3.09-1.27,4.3m.25-7.87h1c1,3.17,4.82,7.87,9.2,6.82,1.88-.45,1.22-2.09,3.41-2.6,0,2.42-1.32,3.51-3.41,3.9.58,1.19,2.95,2.38,1.7,4.22-2-.3-1.34-2.29-3.07-3.25-2.34-1.3-5.47-.26-7.84-.33-1.19.38-1.46,1.64-3.07,1.62-.3-3.14,2.36-6.17,2-10.39"/><path class="cls-4" d="M130.39,33.35c2-.43,1.64,2.32-.34,1.62a2,2,0,0,1,.34-1.62"/><path class="cls-4" d="M162.77,41.14v-1.3c-.51.06-1.26-.12-1.36.32.69.1.67.88,1.36,1M152.21,39.2c.81-.2,1.59-.44,1.71-1.3-1.05.24-.66-.89-1.71-.65V39.2ZM150.5,34h1c1,.21.94,1.49,1.7,1.95,2.71.88,4.73,2.42,8.18,2.6,1.62-.42,1.92-1,3.75-.65-.45,2.24-.29,3.33-1.37,5.19-3.13.12-4.34-3.51-7.5-3.57-1.91,0-2.57.81-4.77,2.27-.76-.14-1.09-.7-1.7-1-.57-.71.74-1.7,1-2.6-.23-1.4-.94-3-.34-4.22"/><path class="cls-4" d="M120.84,41.62a2.52,2.52,0,0,0,3.07.82c-.43-1.33-.87-2.64-2.39-2.92-.86.27-1.08,1.05-.68,2.1M127,34.47a2.37,2.37,0,0,1,1,1.32c1.67,7.27-2.94,6.52-2.15,8.89.08,1.12-2.67,6.69-3.3,9.77-2.13-.38-1.26-2.5-1-3.57.43-2,3-4.39,2.73-6.5-3.37-.08-6-2.16-5.11-4.87,1-2.88,5.88-1.24,6.14,1.95,2.21-.87,1.41-5.16,1.7-7"/><path class="cls-4" d="M203.16,38.62c1.25-1.39-.85-1,0,0m-1.1,1c-1.26-1.71-.59-4.73,2.66-3.39,1.35,1.76.63,4.08-2.66,3.39"/><path class="cls-4" d="M113.36,44.91a4,4,0,0,1,3.23,1c-.28-1.06-.29-2.77-.55-4.09a20.93,20.93,0,0,0-2.68,3.13m3.28-7.46,1,.12c.27,2.3-.91,6,.41,8.22.52.89,2.14.94,2.52,1.93,0,.58-.74,1.57-1.41.86-2.42-.72-3.11-2.35-6-2.38-2,0-1.89,1.43-3.5.86-.7-1-.19-1.4.83-1.5,2.29-1.9,4.71-3.65,5.65-7.19,0-.53.38-.52.45-.93"/><path class="cls-4" d="M197.2,45c2.1-.59,2-4.31.34-5.52-2.34-1.67-5.22.54-7.16,1.62,2.12.79,3.54,4.81,6.82,3.9M186,41.14c-.54-1.92,2.58-.35,3.07-1.3,3.13-1.49,6.54-3.85,9.54-1.62s2.3,7.9-1.7,8.44c-3.83.52-4.37-2.8-7.16-4.22-1.52-.78-2.68.12-3.75-1.3"/><path class="cls-4" d="M130.73,41.14c-.16,1.39.4,1.89,1.71,3.25,8.25.3-1-9.49-1.71-3.25m1-3.25c3.25-.94,6.31,1.37,5.79,4.87-.68,4.62-7.87,3.68-8.52-.33-.35-2.16.13-3.8,2.73-4.55"/><path class="cls-4" d="M147.09,42.12c0-.83-.06-1.67-1-1.63,0,.83.06,1.67,1,1.63m1.7,1c3.06,1.82,4.3-2.28,6.82-1-1.29,2.2-2.84,4.44-1.36,8.12-2.48,1-2.49-3.67-1.8-5.7-.56.52-2.31.52-4.18.27-1.37,1.75-3.49,1.62-6.29,1.2.16-1.79,3.48-.58,4.43-1.62-.79-1.45-2.07-1.63-2-3.25,0-3.65,5.39-3.32,4.43,1.95"/><path class="cls-4" d="M195.5,40.49a1.63,1.63,0,0,0,1,.33c0,.81.06,1.57-.68,1.62-1.45.24-1.19-1.77-.34-1.95"/><path class="cls-4" d="M205,43.74c.15,1.45,3.77,2,3.75,0,0-.42-.44-.45-.34-1-1.14-.46-3.53-.69-3.41,1m4.77-1.62c2.26,5-5.15,5.89-6.13,2.6-1-3.47,3.46-5.22,6.13-2.6"/><path class="cls-4" d="M211.86,41.47a2.31,2.31,0,0,1,1.7.32v1.3a3,3,0,0,1-2,.33,2.66,2.66,0,0,1,.34-1.95"/><path class="cls-4" d="M172.65,46.47c1.48.41,1.17-1,2.43-.86.89,1.1-.54,2-1.15,2.54,1.35.17,2.51.14,3.1-.5,1.23-3.58-5.59-4.49-4.38-1.19M162.78,46c-.57,1.74,1.7,1,1.59,2.35-2.52,1.11-3.45-1.49-3.29-2.44.52-3.2,7.88-2.35,9.57-.18,1.42-5.22,9-1.76,8.45,1.72-.23,1.36-2,2.27-3.19,2.44-4.07.59-8.12-7.47-13.12-3.9"/><path class="cls-4" d="M182.91,42.77c5-.48,6.16,2.79,8.86,4.55,1.47.49,2.41-.41,3.41.65-.56,4.65-5.48,2.81-8.52,1.63-1.65-.28-5,3-6.56,2.84-1.7-.61,3.19-5.23,3.49-6.74-.09-1.11-.86-1.56-.68-2.92"/><path class="cls-4" d="M131.75,52.51c.93-4-2.31-5.44-5.11-6.82,1.14-1.39,6.26,1.06,6.82,2.92.37,1.21.58,3.87-1.7,3.9"/><path class="cls-4" d="M137.89,47.31A2.27,2.27,0,0,0,141,50.56c.06-2.12-.71-3.44-3.07-3.25m3.75,4.87c-4.37,1-7-1.77-5.8-4.87,2-4.85,10.59,1.73,5.8,4.87"/><path class="cls-4" d="M158.34,45.27q.24,1.53-1.36,1.3c-1.06-.9.43-2.31,1.36-1.3"/><path class="cls-4" d="M199.59,51.86c1.06.92,3.6,1.87,5.45,1,2.34-3.94-6.63-7.28-5.45-1m7.16-2.27c.15,2.2-.25,3.87-1.37,4.87-3.42.95-6.95-.41-7.5-2.6-1.37-5.46,6.76-7,8.87-2.27"/><path class="cls-4" d="M148.71,47c.86-.47,1.86-.47,2,.33-.06.91-.59,1.38-1.7,1.3a1.08,1.08,0,0,1-.34-1.62"/><path class="cls-4" d="M164.2,50.89c-1.63.46-4.45-.46-5.59-.5,1.89,1.54,5.38,2,5.59.5m3-3.9c.55-.09.59.31,1,.33-.06,1.52,0,.87-.24,1.62-.12,1.25-2.5,3.25-4.54,4.23-2.83.27-6.48-1-6.48-4.55,3.14.27,6.64,1.75,9.54.33.39-.68-.21-1.27.68-1.95"/><path class="cls-4" d="M130,51.86c-1.61-.63-1.89-2.53-4.09-2.6.92-3,5.58.36,4.09,2.6"/><path class="cls-4" d="M118.12,51.86c-.41-1.15-3.43-2.7-5.27-1.3,6.6,1.62-2.89,12.1,4.75,13.32-4.14-3.33,1.64-8.88.52-12m1.36,11.94c-.29,1.48-3,1.36-4.77.55a3,3,0,0,1-1.7-2.42c-.55-2.7,1.62-6.48,1-8.44s-1.84-1.51-3.75-2.6c1.22-3.29,8.29-2.75,9.2.33.78,5-4.79,9.61,0,12.59"/><path class="cls-4" d="M128,53.16a2.42,2.42,0,0,1-2.73-1.95c1-.57,3.16.11,2.73,1.95"/><path class="cls-4" d="M148.12,50.89c2.58,1,5.37,2,6.14,4.87.65,2.48-.68,5.55,1,7.79h-1.7c-.29-1.35-.88-4.12-.43-5.13-.75.38-1,1.18-2,.91-.1-2.25,2.61-2.65,1-4.55a3.86,3.86,0,0,0-1.7,2.92c-3.54-.71,1.14-3.22-.34-4.87a4.45,4.45,0,0,0-2.39,5.2c-3.88-1.49.85-5,.34-7.14"/><path class="cls-4" d="M187,54.46c1.74,0,3.69-.27,3.41,1.62-.76.65-3.67-.7-4.77.32,2.29,1.41,5.34.84,6.48-1.3.12-1.94-4.55-2.32-5.11-.65m-8.18-2.92a.86.86,0,0,1-.49.83c-.26.18-.53.36-.53.79,1.91,2.66,3.79,2.05,5.92.92s4.5-2.79,7.38-2.22c1.39.57,1.82.75,2.26,1.32a3.79,3.79,0,0,1,.81,2.25,7.22,7.22,0,0,1-4.8,3.17,5.28,5.28,0,0,1-5.43-1.88,8.5,8.5,0,0,1-6.08-1.17c-1.37-1-1.79-2.58-.4-4.35a1.12,1.12,0,0,1,.67.17,1.08,1.08,0,0,0,.69.15"/><path class="cls-4" d="M171,51.86c.3.14.61.29.68.65-.19,1.44-2.06,1.29-3.07,1.95a2.27,2.27,0,0,0,1.36,2.27c1-.92,1.82-2,3.41-2.27.33,2-2,1.52-2,3.25.11.76,1.06.71,1.71,1,1-.76.69-2.81,2-3.25,1.48.46,0,1.92,0,2.92,3.34-.84,8.36-1,9.21,2.27-1.38,1-2.13-.85-3.07-1.3-3-.64-6.57,1-9.55.32s-4.08-3.25-4.77-5.85c1.13-.87,3-1,4.09-1.95"/><path class="cls-4" d="M158.88,63.79c-.62-3.24.5-8.32,5.24-6.36,2.12.87-1.87-1.37-.87-1.87a16.44,16.44,0,0,1-6.62-1.37c1.23,2.15-.62,5.24,2.25,9.61m5.94-9.65a3.45,3.45,0,0,0,2,3.9c-.3,1.76-2.74.67-3.75.32-2.83.57-3.68,2.77-3.07,5.2.53,2.11,4.47,2.79,3.41,4.54-3.92-.81-5.32-3.31-7.16-6.82-.79-4.11.33-6.84-1.7-8.12-.06-.38.08-.58.34-.65,2.41.28,6.42,2.19,9.89,1.62"/><path class="cls-4" d="M204,65.67c1.22-.25,2.17-.75,2.39-1.95-1.83-.4-3,1-2.39,1.95m5.11-8.12c.74,1.33.8,2.6-.34,3.57-1.62,0-2.54-.6-3.75-1-.77,1.32,2.07,1.6,2.73,2.6.72,3.52-3.32,5.77-5.46,3.57,0-1.74.07-3.39,1.7-3.57-.21-1.21-1.39-1.49-1-3.25,1.11-1.39,3.45-.91,4.77,0,.19-2-2.43-1.37-2-3.57a3.4,3.4,0,0,1,3.07,0c-.22-1.21-1.51-1.59-.68-2.92,1.93.18,4.29,4.19,1,4.55"/><path class="cls-4" d="M143.87,61.35c.8,1,4,.4,4.25,1.87-1.52,1.94-4.05-1.37-4.77,0,.19,3.06,6.16,2.79,6.38-.08-.32-1.91-4.49-3.75-5.86-1.8m-.18-1.7c2.82-.92,8.41-.11,7.16,4.87a12.88,12.88,0,0,1-3.07,2.27,6.54,6.54,0,0,1-5.46-1.62c-1.53-3,1.59-8.38-3.07-10.54-.84.42,0,2-2,.48,1.93-5.39,7.19,1.11,6.48,4.55"/><path class="cls-4" d="M126,54.78c-1,.06-1.86,0-1.71-1,.66-.63,2.09-.34,1.71,1"/><path class="cls-4" d="M196.18,53.48c1-.31,1.8,0,1.7,1.3-.4.56-.62.93-1.7.65-.36-.67-.67-1.34,0-1.95"/><path class="cls-4" d="M133.12,54.78h1.36c-.53,3.22,1.37,4.35,3,5.52,1.2-.7.73-2.74,2.48-2.92.85,1.78-.77,4.41-2,4.55-.85,1-5.42-2.63-4.77-7.14"/><path class="cls-4" d="M127.21,66.4c-1.65-.61-4-5.48-2.7-8.69-.68,0-2.36-.25-3-.25-.14,3.71,1.73,9.57,5.75,8.94m-6.7-10.64c1.88.84,4,.29,5.79.65-.86,2.77-1.35,5.52.34,7.79.15,1.15,1.83.85,2,1.95-.48,1.46-1.91,1.39-3.07,1.3-4.29-.35-6-7.8-5.12-11.69"/><path class="cls-4" d="M199.25,58.68c1,.48,1-1.45,0-1-.43,0-.6.63,0,1m1.36-2.27c.76.44,1,2.46.34,3.25a2.74,2.74,0,0,1-3.07,0c-.53-.47-.3-1.66-.34-2.6a2.51,2.51,0,0,1,3.07-.65"/><path class="cls-4" d="M130.08,55c2.18.29.71,4-1.28,2.43-.7-1.22.52-1.94,1.28-2.43"/><path class="cls-4" d="M192.08,69.15c-.25-.25-2.59-1.39-3.06-2.68a6.32,6.32,0,0,1,.34-4.87c-5.6.55-6.15,10.54,2.72,7.55M195.16,59c-.49,2.08-4.12,1.52-4.77,3.9a4.21,4.21,0,0,0,2,4.87c.77-.12,1.39.38,2-.65.9,2.06-2.42,3.7-3.75,3.9-9.36,1.4-9.6-11.37,0-11,1.08-.49,2.79-2.09,4.43-1"/><path class="cls-4" d="M211.09,68.64c.43-1.44,2,0,3-.62,1.88-.72,3.26-4.69,1.34-6.18-1.44-1-2.54-.31-4.29-.09-.24-2.31,2.49-2,4.65-1.6a5.73,5.73,0,0,1,.28,8.49c-1.15,1-4.7,2.23-4.93,0"/><path class="cls-4" d="M142.32,73c-.64-3.29-3.77-4.2-6.14-5.85,0,3.91,1.91,6,6.14,5.85m1.09-.32c.62-3.49-4.74-7.24-6.49-6.62,1.68.89,5.49,3.12,6.49,6.62M132.78,60.3c1.36-.21.27,2,2,3.48,1.87,2.12,8-.5,9.91,9.18-4,3.54-11.23-.25-9.89-6.82-.7-1.77-3.43-3.15-2-5.85"/><path class="cls-4" d="M180,64.78c-1.37.21-4.49,0-5.52.22.52,2,5,1.24,5.52-.22m-5.27-2.21c-.35.34-.35.71-.5,1.22a47.37,47.37,0,0,0,6-.25c-.32-1.42-4.14-1.62-5.52-1m-6.48,3.9c1.22-1-.86-1.54-.34-2.92,2.33-.38,2.06,1.72,2,3.57-1.74,1.59-5.58.56-6.14-1.3-1.3-4.4,5.6-6.61,8.86-3.25,1.73-3,8.23-2.11,9.54.65.15,4.45-8.95,6.72-9.54,1.3-1.34-1.66-6.71-3.3-7.16-.33-.14.93.36,2.62,2.73,2.27"/><path class="cls-4" d="M196.52,65.5c1.33.59,3-.08,2.73-1.95-1.36-.89-3.31,0-2.73,1.95m3.75-3.57c2.45,5.48-5.9,7-5.45,2.27.19-2,2.65-3.2,5.45-2.27"/><path class="cls-4" d="M128.46,59.31c2.13-.51,2.3,3.08-.21,2-.19-.55-.7-1,.21-2"/><path class="cls-4" d="M213.91,63.88c-.29,1.52-1.31.33-2.39,1-1.33.57-1.84,1.18-2.38,3.25.17,2.05,1,2.71,1.29,3.43-4.06-.93-2.33-7.29.41-8.3.55-.2,2.81-.71,3.07.65"/><path class="cls-4" d="M130.37,63.28c.12.81-.15,1.08-.67,1.17-.83-.16-1.19-.56-.73-1.35.38-.11,1-.37,1.4.18"/><path class="cls-4" d="M159.21,66.72c1.05,1-.3.9-.18,2,1.57,2,6.6,1.9,3.23,6.9-1.35-.55.13-2.12-.75-3.37-.62-.87-1.75-1.12-2.91-1.83a3,3,0,0,1-1.27-2c-2.8.4-3.87-.86-5.45-1.62-2.43,0-1.3,3.41-1.7,4.55-3.32-.92-1.58-7.23,2.73-5.85,1.38.66,2,1.37,3.41,1.62,1.69.13,1.54-1.13,2.91-.4"/><path class="cls-4" d="M121.44,81.76a2.81,2.81,0,0,1-3.32.63c-3-4.22,4.09-9.26,2.39-13-1.14-2.49-6.09-1.22-5.45,2.92-1.6-.45-1.17-3-.68-3.9,1.64-3.14,7.28-2.24,7.84,1.3.66,4.15-3.89,7.42-3.14,10.41.13,1.62,2.25-1,2.37,1.62"/><path class="cls-4" d="M169.25,70.69c.72.29,1,1,2,1a4.34,4.34,0,0,1,2.39-1.3c-.41-.7-.64-1.55-1.36-1.95-.81,1-2.17,1.4-3.07,2.27m8.86-.65c-.59,2-3.36.9-5.45,1.95-.53.8-.21,2.4-1.71,2.27-1.09-.26-.77-1.86-1.7-2.27a28.67,28.67,0,0,1-4.09-.65c1-2.66,5.63-1.78,6.48-4.55.28-.06.34-.33.68-.33A17.4,17.4,0,0,0,178.11,70"/><path class="cls-4" d="M157,79.46c-1-1.9-3.73-2.07-6.82-1.95.64,2.12,4.25,2.71,6.82,1.95m-1.7-3.25c.09.67,1.27.31,1.36,1,.75-2.21,0-4.87,2.87-5,.53,1.5-.49,2.25-1.16,4.07s1.45,2.09,1,3.25c-2.7,3.24-10.16,1.81-11.25-1.95-2.11-.12-4.33-1.63-3.75-3.25,2.05-.22,1.75,1.8,3.41,1.95,1.25-1.85-.51-3.62-1-4.87,1.86-.6,3.12,1.94,2.73,4.55.73.6,2.5.22,3.75.32.55-1.7,1.64-3,1-4.55s-2.25-1-2.73-2.64c3.88-.47,5.17,3.3,3.76,7.19"/><path class="cls-4" d="M189.7,76.21c2.15,1,4.55-.36,4.09-2.92-1.92.44-4.44.31-4.09,2.92m9.89-7.47h1c1.09,2.75-1.9,5.9-5.11,4.55.23,3.68-2.2,4.83-5.46,5.19a3.87,3.87,0,0,1-2-4.22c1-3.6,8-2,10.57-2.92,1-.27.41-2,1-2.6"/><path class="cls-4" d="M125.28,78.14c2.4-.25,4-5,1-5.82-2,1.95-4.48,5.82-1,5.82m8.18-9.07c.59,1.06.21,3,1,3.9.38,1.15,2.47.68,2,2.6-2.37.57-3.73-2.17-4.09-4.55-1,.74.48,1.9,0,3.25-1.3-.17-1.5-1.38-1.7-2.6-.57,0-1.82-.19-2.38-.19,2.16,2.66,1.05,8.78-4.43,8-3.47-.68-1.22-6.1,1-7.77,0-1-1-1.65-.34-2.27,2,.08,5.32,1.19,8.86-.32"/><path class="cls-4" d="M179.14,73.94c.93.31,1.27,1.17,2,1.62a13.89,13.89,0,0,1,2.73-2.92c-1.29-.07-1.65-1-2.73-1.3a22.14,22.14,0,0,1-2,2.6m1.36-4.87c1.88.05,2.1,1.68,3.41,2.27,1.05.51,3.46-.26,3.41,1.3-.17,1.35-2.22.92-3.07,1.62-1.49.64-1.82,2.38-3.07,3.25-2-1.35-3.21-3.43-6.48-3.57.13-2.11,2.14-.58,3.41-1.3s1.92-2.07,2.38-3.57"/><path class="cls-4" d="M202,77.84c1.33,1.61,5,1,6.14-.32a4.36,4.36,0,0,0-2.73-5.85c1.24,3.28-.82,5.52-3.41,6.17m-3.07-2.27c1.43-.17,1.9.57,3.07.65,3.22-.57,1.76-4.17.68-5.85,5.26-1.27,8.52,3.56,7.16,7.15-1.75,4.62-10.26,2.94-10.91-1.95"/><path class="cls-4" d="M118.8,71a1.15,1.15,0,0,1-2,1,1.19,1.19,0,0,1,2-1"/><path class="cls-4" d="M141,83.85c2.73-1,6.05,2.4,7.92,1.78.14-1.18-2.12-.75-3.49-1.87a4.49,4.49,0,0,1-.13-4,8.48,8.48,0,0,1-3.74-2c.87,2.12-.16,4.43-.56,6.08m6-5-.7,3.17c0,2,4.33,1.41,4.5,3.33-1,3.62-5.35.56-8-.11-1.71-.43-1.92,1.36-3.68.85-.57-2.4,2-4.61,1.55-7,.05-1.31-1.34-1.75-1.43-3,0-.38.2-.55.47-.56,1.7.7,4.47,3.08,7.3,3.29"/><path class="cls-4" d="M173.43,79.36c2.25.36,3.06-.63,3.32-1.8-.23-2.67-8.3-.68-3.32,1.8m4.86-2.27c.55,2.17-2.78,4.26-5.56,3.54-1-.53-5.51-6.42-7.05-2.24-.41,1.58,1.58.88,1,2.6-6.38,0-.34-9.08,3.66-4.72,2.57-1.85,7.74-1.37,7.93.83"/><path class="cls-4" d="M130.73,80.76c-.18,2.27,3,4.81,6.13,2.92.58-4.4-5.81-6.9-6.13-2.92m7.16,4.55c-4.29,1.53-9-1.15-8.52-5.2.7-6.33,11.64-1.69,8.52,5.2"/><path class="cls-4" d="M195.25,81c-.25,1,.32,1,.84,1.45,1.6.29,2.1-.21,2.29-1.53-1.07-.16-2,.34-3.13.08m1.27-1.55c0-.39.61-.74,0-1,0,.38-.61.74,0,1m1.79,3.8c-1.49.79-4.32.12-4.52-2.17-.61-.61-2.5,0-2.38-1.3-.12-1.56,1.88.19,2.2-.32a4.26,4.26,0,0,1,3-2.32c3.37.5,3.16,5.24,1.74,6.12"/><path class="cls-4" d="M180.35,82.63c1.6,1.29,7.24,6.36,8.36.5-1.87.38-5,.25-5.12-3.87a9,9,0,0,1-3.24,3.37m-2.55.4c-.38-1.45,1-1.17,1.71-1.62,2.23-.9,2.4-3.77,5.11-4.22.24,1.89-.18,4.21,2,4.87,1.72.56,1.72-1.51,2.73-.65,1.5,1.77-.15,4.37-1.36,5.52-1.44.56-2.56.56-4.77-.32-1.66-1-3.71-3-5.45-3.57"/><path class="cls-4" d="M161.41,80.44c2.4.7,4.06,3.86,7.16,1.95.66-2.28-2.06-3,0-3.9,3.49,1.43,1.7,5.76-1.36,6.17-2.75.37-6.08-1.77-5.79-4.22"/><path class="cls-4" d="M201,82.39c0-1-1.25-1.69-.34-2.6,3.42,1.23,1.33,5.84-1,6.49-3.77.09-8.73-.84-9.89,2.6,0,1.58.75,1.36.27,3.07-3.52-1.58-1.5-6.63,3.14-7.29,3-.43,7.49,1.3,7.84-2.27"/><path class="cls-4" d="M132.09,88.55c-4.33,0-6.92-2.13-5.11-6.17-10.71,1,1,10,5.11,6.17m-3.41-6.49c.51,1.92-1.1,3.1-.34,4.22,1.82,1.68,5.51-.23,7.16.33-1.27,6.84-14.31,4.22-14.66-1.3-.18-3,4.37-6.46,7.84-3.25"/><path class="cls-4" d="M204.06,81.38c.23,0,.52.13.75.13a3.56,3.56,0,0,1,.92,4.77c-1.39,2.3-5.62,4.24-7.16,1.84,4.24.13,7.74-3.62,5.49-6.74"/><path class="cls-4" d="M133.12,81.09a2.3,2.3,0,0,1,1.7.32,1.25,1.25,0,0,1-1.36,1.3,2,2,0,0,1-.34-1.62"/><path class="cls-4" d="M156.88,89.74c-1.75-.63-3.62-.75-4.37,1.37-.37,2.5,3,2.29,4.55,1.39a6.39,6.39,0,0,1-.18-2.76m2.57-5.06c1.67,2-1.67,4.59-.56,6.68,2.57-2.32,3.15-5.69.56-6.68M151,93.15c-.22-1.63-.1-3,.94-4.12,1.68-1.74,3.75-.58,5.62-.59,1.46-1.81.42-3.35-1.45-4.81a3.54,3.54,0,0,1,4.68-.49c5.72,4.14-3.61,15.62-9.8,10"/><path class="cls-4" d="M125.62,83.68c.24,1,.24.62,0,1.62-1.28.24-1.66-.37-1.7-1.3a2.31,2.31,0,0,1,1.7-.32"/><path class="cls-4" d="M172.11,87.5c-1.5-1-.62-1.12-4,.33.58.23,2.11.29,2.59,3.72.52-3.18,6.14-3.93,9.73-3.14-2.88-3.72-7.46-1.66-8.34-.91m.46-1.58c3.46-2.81,8.93.3,10.1,3.88-1.15.87-2.12-.44-3.16-.62-3.57-.21-6.94,1.28-7.59,2.38a23.58,23.58,0,0,1-1.56,2.56c-.5-2.25-1.12-5.61-5-5.74-.23-1.18-.28.83-.07-.76,3.23.16,5.39-4.91,7.27-1.69"/><path class="cls-4" d="M145,93.75a4.43,4.43,0,0,0,2.39-2.6c-.7-.09-.67-.88-1.36-1,0,1.26-1.71,2.69-1,3.57m-10.63-1.64c-1.89.76-1.75.25-2.87.62,2,.38,3.8,2.13,5.66,2.64a10,10,0,0,1,6.57-6.75c-2.7-.75-7.32,2.29-9.36,3.49m14.22,0c-.62,2.61-4.09,3.59-6.66,3.25.1-2.29,2.64-2.25,2-5.2-2.37.27-3.61,2.18-4.86,3.76-.87,2.16-.16,3.72-.93,4.68-1.22-.24-1.32-1.56-2-2.27a21.59,21.59,0,0,0-7.5-3.25c0-2,2.36-1.27,3.41-1.62,2.9-1,5.32-3,8.18-3.9.51-.46,2-.38,2.7-.5,3.94.8,5.92.54,5.66,5"/><path class="cls-4" d="M193.45,95.23c1.78.38,4.91-4.17,3.12-5.87-.18,2-2.94,3.87-3.12,5.87m0-2.78c.64-.91,1.52-1.58,1.71-2.92-1.32.06-2.45,2-1.71,2.92m-9.2,2.92c1.67-.4,1.32,1.12,2.73,1a7.68,7.68,0,0,0,4.43-1.62c-.8-4.5,3.07-8.53,5.79-6.49s.84,7-2.39,8.12c-1.24.63-2.47.41-2.73-.33-1.49,1.6-8.63,2.83-7.84-.65"/><path class="cls-4" d="M165.5,95.13c1.62-.26,2.12-1.14,1-2.35-2.93-2.63-5,2.47-1,2.35m-2.39-4c2.38-1,4.76.23,5.12,1.62,1.69,6.65-11.57,2.5-5.12-1.62"/><path class="cls-4" d="M188.34,92.45c.87.79.87,1.16,0,2-.75-.12-1.25-1.37-2.75-1.87a4.67,4.67,0,0,0-6.11,2.76c-.56,2,2,1.43,3.07,3.25-6.68,1.06-5.22-8.34,1.71-7.79a9.07,9.07,0,0,1,4.09,1.62"/><path class="cls-4" d="M172.66,97.65A1.68,1.68,0,0,0,175,97c-.83-.18-.73-1.26-2-1a2,2,0,0,0-.34,1.63M171.3,98c-1-4.76,4.89-3.62,5.11-1.3.21,2.14-3.28,3.29-5.11,1.3"/><path class="cls-4" d="M155.39,97.65a7.73,7.73,0,0,0-.34,3.25c1.53,1.46,3.53.45,5.64-.5a1.69,1.69,0,0,0,.84-1.13,4.57,4.57,0,0,0-6.13-1.62m6.75,2.92c-1.51,2.28-6.6,3.48-8.46,1-.23-3.23.14-5.22,2-5.84,5.54-1.82,8.39,5.28,10.91,7.14.9,0,1.95.12,2.38-.32,1.59-.32.83-2.89,2.73-2.93,1,2.89-2.52,5.75-5.79,4.55-1.64-.15-.87,2-2.73,1.62a4.08,4.08,0,0,1,1-2.6c-.8-.53-2.19,1.15-3.41,1.3-1.43-2,2.7-1.95,1.3-3.9"/><path class="cls-4" d="M166.73,99.2a1.2,1.2,0,0,0,1.64.66c.77-.62.12-1.22-.37-1.5,0,.33-1.62-.25-1.26.84m1.39-1.84c1.5.62,1.9,1.3,1.68,2.49-2.68,3.75-7-3.24-1.68-2.49"/><path class="cls-4" d="M185.61,98c.9,5.06-9.36,6.57-10.57,1.3,2.49-.36,2.29,2.64,6.14,1.95,2.23-.4,2.08-2.91,4.43-3.25"/><path class="cls-4" d="M122.21,29.45c.61,1.26,1.73.14,1.54,1.3-.11,1.73-2.69,1.71-3,2.92,1.06-.43,1.72.09,3.14,0,.7-2.27,4.64-4.36,2-6.82-2.31-.14-4.12.19-3.75,2.6m6.14.33c-.57,2.37-3.5,2.51-3.07,5.84-3-1-3.52-.65-6.13-.32a4.64,4.64,0,0,1,2.38-4.22c-4.18-5.07,7.49-8.49,6.82-1.95"/><path class="cls-4" d="M215.84,45.59l-.55,0c2,4,2.37,9.61-2.25,12.11,7-2,4.86-10.16,3.62-11.48l-.82-.6Zm-.23,5c-.49-1.59-.52-3.62-1.71-4.55-2.39,1.15-2.11,6.18,1.71,4.55m-.34,1.95c-.21-.32-2.29.3-3.07-.33-3.18-2.61-1.27-8.91,4.43-7.79,2.91,2.77,3.53,8.79.34,12.49-1.43,1.16-4,2.44-6.14,1.47V57.7c1.61-1.61,4-2.42,4.43-5.19"/><path class="cls-4" d="M146.75,47.31a2.15,2.15,0,0,1-2.39,3.57c-1-1.87-.72-4.09,2.39-3.57"/><path class="cls-4" d="M148.65,96.86c-.5,1.75-3.34,1.49-3.66,2.61.76.43,1,1.44,1.64,2.08.9-.11,1.92-.37,2.41,0-.53-1.22-.26-3.1-.39-4.72m.76-3.18c.46.06.6.5,1.1.52-.37,1.88-.68,4.31.1,6.21s2.57,1.86,3.15,3.2c-1.95,1.76-3.8-1.35-6.63-.8-1.56.12-1.21,1.64-2.88,1.67-1.16-1,.36-1.9.31-3-.24-2.32-3.2-1.28-3.53-3.48.83-.91,1.78.29,3.09-.06,2.74-.71,3.71-2.72,5.3-4.28"/><path class="cls-4" d="M153.65,85.13c.53-1.79-1.22-.57,0,0m-.26,1.8c-1.87-1-2.88-4.48.62-4.68a2.5,2.5,0,0,1-.62,4.68"/><path class="cls-4" d="M131.49,30.64c.54-.75-1-1-.8-.15l.8.15m-1.67-1.46a2.29,2.29,0,0,1,2.73.21,2.28,2.28,0,0,1-.46,2.52c-.47.36-.91.3-2.2-.11-.25-1.07-.67-1.47-.08-2.62"/><polygon class="cls-3" points="13.54 156.55 5.73 156.55 5.73 118.16 1 118.16 1 110.9 5.73 110.9 5.73 94.4 13.54 94.4 13.54 110.9 21.68 110.9 21.68 118.16 13.54 118.16 13.54 156.55 13.54 156.55"/><polygon class="cls-3" points="46 141.81 58.78 111.04 61.8 111.03 74.49 141.81 88.13 110.9 96.93 110.9 75.58 156.91 73.1 156.91 60.19 125.75 47.28 156.91 44.81 156.91 23.67 110.9 32.47 110.9 46 141.81 46 141.81"/><path class="cls-3" d="M100.71,133.67c0,9.9,6.6,17,15.95,17s16.28-7,16.28-16.83-6.82-16.83-16.17-16.83c-9.13,0-16.06,7.15-16.06,16.61m40.26.22c0,13.53-10.56,24-24.31,24-13.53,0-24-10.67-24-24.42,0-12.87,10.89-23.54,24.2-23.54a23.78,23.78,0,0,1,24.09,24"/><path class="cls-3" d="M195.52,133.67c0,9.9,6.6,17,16,17s16.28-7,16.28-16.83-6.82-16.83-16.17-16.83c-9.13,0-16.06,7.15-16.06,16.61m40.26.22c0,13.53-10.56,24-24.31,24-13.53,0-24-10.67-24-24.42,0-12.87,10.89-23.54,24.2-23.54a23.78,23.78,0,0,1,24.09,24"/><polygon class="cls-3" points="292.43 156.55 284.62 156.55 284.62 118.16 279.89 118.16 279.89 110.9 284.62 110.9 284.62 94.4 292.43 94.4 292.43 110.9 300.57 110.9 300.57 118.16 292.43 118.16 292.43 156.55 292.43 156.55"/><path class="cls-3" d="M307.22,133.67c0,9.9,6.6,17,16,17s16.28-7,16.28-16.83-6.82-16.83-16.17-16.83c-9.13,0-16.06,7.15-16.06,16.61m40.26.22c0,13.53-10.56,24-24.31,24-13.53,0-24-10.67-24-24.42,0-12.87,10.89-23.54,24.2-23.54a23.79,23.79,0,0,1,24.09,24"/><path class="cls-3" d="M357.73,133.78c0,9.9,6.27,16.94,15.18,16.94,8.58,0,15.07-7.15,15.07-16.72,0-9.79-6.27-16.94-15-16.94-9,0-15.29,6.82-15.29,16.72m.55-16.39c4.51-5.17,9.46-7.48,16-7.48,12.54,0,21.78,10,21.78,23.76,0,14-9.35,24.2-22,24.2-6.38,0-11.44-2.42-15.73-7.59v6.27h-7.81V76.36h7.81v41Z"/><path class="cls-3" d="M434.78,128.72c-1.43-7.15-6.71-11.77-13.42-11.77a13.86,13.86,0,0,0-13.42,11.77Zm-27.39,6.6c.44,9.35,6.27,15.4,14.52,15.4,6.05,0,9.68-2.53,14.08-9.57l6.6,3.74c-5.06,8.91-11.77,13-21,13-13.2,0-22.44-9.79-22.44-23.87s9-24.09,22.11-24.09S443,119.48,443,134v1.32Z"/><path class="cls-3" d="M454.82,110.9v5c4.07-4.84,6.05-6.05,10.34-6.05a12.4,12.4,0,0,1,6.93,2l-3.63,7a7.69,7.69,0,0,0-4.62-1.54,8.32,8.32,0,0,0-7.26,4.18c-1.21,2.2-1.76,5.5-1.76,11v24.09H447V110.9Z"/><path class="cls-3" d="M491.63,121.57c-1.65-3.08-3.63-4.51-6.38-4.51a5.37,5.37,0,0,0-5.5,5.06c0,2.64,1.54,4.07,7.37,6.49,5.17,2.2,6.6,2.86,8.69,4.4a11.92,11.92,0,0,1,5.06,10c0,8.36-6.82,14.85-15.62,14.85-7.59,0-13-4-16-11.66l6.93-2.86c2.53,5.5,4.95,7.37,9.13,7.37a7.17,7.17,0,0,0,7.48-7.26c0-3.41-1.65-5.06-7.37-7.48-10.56-4.51-13.2-7.26-13.2-13.31,0-7.26,5.72-12.76,13.31-12.76,5.61,0,9.68,2.64,12.54,8.25l-6.49,3.41Z"/><path class="cls-3" d="M274,121.22c-4.57-3.31-5.33-3.71-11.11-4.16-9-.7-16.06,7.37-16.06,16.83s8.25,17.73,15.95,16.83c6.1-.72,6.1-.72,11.47-4.51l3.38,6.92c-5.61,3.52-9.35,4.73-14.63,4.73-13.64,0-24.2-10.45-24.2-23.87a24.62,24.62,0,0,1,38.5-19.8l-3.3,7Z"/></svg>